<?xml version="1.0" encoding="UTF-8"?>
<svg width="25px" height="20px" viewBox="0 0 25 20" version="1.1" xmlns="http://www.w3.org/2000/svg" xmlns:xlink="http://www.w3.org/1999/xlink">
    <!-- Generator: Sketch 47 (45396) - http://www.bohemiancoding.com/sketch -->
    <title>Shape</title>
    <desc>Created with Sketch.</desc>
    <defs></defs>
    <g id="Page-1" stroke="none" stroke-width="1" fill="none" fill-rule="evenodd">
        <g id="Desktop" transform="translate(-500.000000, -255.000000)" fill-rule="nonzero" fill="#FFFFFF">
            <g id="Group-2" transform="translate(512.000000, 265.000000) rotate(90.000000) translate(-512.000000, -265.000000) translate(492.000000, 245.000000)">
                <path d="M8.90756851,18.1565766 L31.4277085,18.1565766 C31.794762,18.1565766 32.1255134,17.9273589 32.2662845,17.5755849 C32.4066521,17.2242291 32.3288045,16.8193335 32.069447,16.5499608 L26.0191156,10.2757515 C25.6645662,9.90808283 25.0901881,9.90808283 24.7356387,10.2757515 C24.3810893,10.6430019 24.3810893,11.2390518 24.7356387,11.6067204 L29.2366819,16.2743139 L8.90756851,16.2743139 C8.40660107,16.2743139 8.00001881,16.6955224 8.00001881,17.2154453 C8.00001881,17.7353681 8.40660107,18.1565766 8.90756851,18.1565766 Z M31.4277085,21.2242467 L8.90756851,21.2242467 C8.54051508,21.2242467 8.20976363,21.4534645 8.06899258,21.8052385 C7.9286249,22.1565942 8.00647249,22.5614898 8.26583003,22.8308626 L14.3161614,29.1050719 C14.4932344,29.288697 14.7255671,29.3807188 14.9578999,29.3807188 C15.1902326,29.3807188 15.422162,29.288697 15.5996383,29.1050719 C15.9541878,28.7378215 15.9541878,28.1417716 15.5996383,27.7741029 L11.0985952,23.1065095 L31.4277085,23.1065095 C31.928676,23.1065095 32.3352582,22.6853009 32.3352582,22.1653781 C32.3352582,21.6454553 31.928676,21.2242467 31.4277085,21.2242467 Z" id="Shape" transform="translate(20.167639, 19.690359) rotate(90.000000) translate(-20.167639, -19.690359) "></path>
            </g>
        </g>
    </g>
</svg>